PathFileType	4	(X/Y/Z)	/Users/itak/Documents/Research/Walk-IL/dataset/trc/00321_00011.trc
DataRate	CameraRate	NumFrames	NumMarkers	Units	OrigDataRate	OrigDataStartFrame	OrigNumFrames
100.000000	100.000000	4	55	mm	100.000000	427	488
Frame#	Time	LPSI			L3			STRN			T10			C7			CLAV			RBAK			LBAK			LSHO			LUPA			LAEL			LAOL			LWTS			LWPS			LFRA			LIFD			LHPS			RSHO			RUPA			RAEL			RAOL			RWTS			RWPS			RFRA			RIFD			RHTS			RHPS			RBHD			LFHD			RFHD			LBHD			LHIP			RHIP			RASI			LASI			LKNE			LTHI			LANK			LTIP			LTOE			LMT1			LMT5			LHEE			RKNE			RTHI			RANK			RTIP			RTOE			RMT1			RMT5			RHEE			RPSI			LHTS			*53			*54			
		X1	Y1	Z1	X2	Y2	Z2	X3	Y3	Z3	X4	Y4	Z4	X5	Y5	Z5	X6	Y6	Z6	X7	Y7	Z7	X8	Y8	Z8	X9	Y9	Z9	X10	Y10	Z10	X11	Y11	Z11	X12	Y12	Z12	X13	Y13	Z13	X14	Y14	Z14	X15	Y15	Z15	X16	Y16	Z16	X17	Y17	Z17	X18	Y18	Z18	X19	Y19	Z19	X20	Y20	Z20	X21	Y21	Z21	X22	Y22	Z22	X23	Y23	Z23	X24	Y24	Z24	X25	Y25	Z25	X26	Y26	Z26	X27	Y27	Z27	X28	Y28	Z28	X29	Y29	Z29	X30	Y30	Z30	X31	Y31	Z31	X32	Y32	Z32	X33	Y33	Z33	X34	Y34	Z34	X35	Y35	Z35	X36	Y36	Z36	X37	Y37	Z37	X38	Y38	Z38	X39	Y39	Z39	X40	Y40	Z40	X41	Y41	Z41	X42	Y42	Z42	X43	Y43	Z43	X44	Y44	Z44	X45	Y45	Z45	X46	Y46	Z46	X47	Y47	Z47	X48	Y48	Z48	X49	Y49	Z49	X50	Y50	Z50	X51	Y51	Z51	X52	Y52	Z52	X53	Y53	Z53	X54	Y54	Z54	X55	Y55	Z55	

428	4.27	869.7568359375	974.8280639648438	-10.05850505828857	867.9583740234375	1025.628784179688	57.29491424560547	1083.26123046875	1215.225952148438	45.96841812133789	848.0756225585938	1143.296875	42.28050994873047	878.0116577148438	1392.717529296875	25.44987678527832	1036.009765625	1338.897216796875	39.61460494995117	833.4375	1253.431884765625	92.72186279296875	875.3432006835938	1354.659301757812	-76.76132965087891	964.3134765625	1373.623413085938	-127.4541397094727	959.2755126953125	1251.2294921875	-193.6179504394531	994.3673095703125	1048.063842773438	-199.7615661621094	928.5755615234375	1031.77685546875	-148.0592803955078	1093.888549804688	806.6345825195312	-147.6747283935547	1059.109619140625	796.4791870117188	-206.3621368408203	1014.961120605469	945.2381591796875	-203.9174652099609	1098.7451171875	645.2382202148438	-147.5495300292969	1055.773193359375	726.066650390625	-202.0107269287109	929.9765625	1381.822265625	192.1821441650391	918.3773193359375	1316.204223632812	255.1510772705078	935.9501953125	1048.63134765625	293.6848449707031	908.2748413085938	1038.719604492188	205.4922027587891	1064.7333984375	828.791015625	267.8135681152344	1021.318359375	812.245849609375	328.0896301269531	962.870849609375	983.1790771484375	306.556396484375	1089.312255859375	657.166748046875	286.6513366699219	1096.5361328125	729.6758422851562	288.212890625	1040.709228515625	729.9509887695312	328.7542419433594	908.4241943359375	1591.448852539062	114.2836990356445	1077.703857421875	1623.3935546875	-3.47050404548645	1067.617919921875	1620.871948242188	97.36164093017578	896.0790405273438	1587.52685546875	-29.54668045043945	955.9050903320312	913.8287353515625	-113.5992660522461	949.9898681640625	917.2202758789062	226.7376403808594	1054.707153320312	944.8649291992188	184.1562652587891	1075.680419921875	940.2694702148438	-56.80525207519531	968.4447631835938	456.7287902832031	-98.25259399414062	979.311767578125	595.6484985351562	-109.2456512451172	883.4744262695312	41.01065063476562	-79.65302276611328	923.88330078125	241.6522521972656	-102.5918350219727	1093.188354492188	32.84209442138672	-37.20848846435547	1027.427856445312	20.36026763916016	10.33369731903076	1007.709594726562	33.61821365356445	-101.7295455932617	854.4979858398438	35.89855194091797	-10.09548377990723	949.3485107421875	452.9379272460938	199.8566589355469	1015.849731445312	708.4703369140625	221.7608947753906	883.4100341796875	43.34913635253906	169.5379486083984	950.08740234375	335.680908203125	190.3446197509766	1076.876708984375	32.91501617431641	114.8458404541016	1018.949340820312	28.97994995117188	74.68164825439453	983.756591796875	28.53233528137207	186.9029388427734	832.8029174804688	45.27216339111328	121.910026550293	871.683349609375	973.9633178710938	118.6119995117188	1106.50732421875	728.54248046875	-163.36474609375	nan	nan	nan	nan	nan	nan	
429	4.28	869.9987182617188	974.8374633789062	-9.980134963989258	868.1581420898438	1025.66259765625	57.36692810058594	1083.735229492188	1215.179077148438	46.11445617675781	848.543701171875	1143.341796875	42.44486618041992	878.5095825195312	1392.755615234375	25.68547630310059	1036.51025390625	1338.881225585938	39.83223342895508	834.0848388671875	1253.4462890625	92.958984375	875.8933715820312	1354.774047851562	-76.54506683349609	964.8616943359375	1373.688232421875	-127.2629623413086	959.1997680664062	1251.363525390625	-193.4939422607422	992.6139526367188	1047.842163085938	-199.5484466552734	927.1104125976562	1032.219116210938	-147.33349609375	1090.10595703125	805.4020385742188	-147.9758911132812	1054.912719726562	795.7161865234375	-206.4810028076172	1012.23291015625	944.88916015625	-203.7602386474609	1092.943237304688	643.9264526367188	-147.8458404541016	1050.732421875	725.3248901367188	-202.119873046875	930.3092651367188	1381.747436523438	192.3570098876953	918.8529663085938	1315.93603515625	255.2690124511719	936.7500610351562	1048.339111328125	293.3470458984375	909.0869750976562	1038.729370117188	205.2430725097656	1066.085815429688	828.9261474609375	266.6655883789062	1022.754211425781	812.023681640625	326.8965759277344	963.763427734375	982.8802490234375	305.9040222167969	1091.28369140625	657.3262939453125	284.9244079589844	1098.283447265625	729.9586181640625	286.6659851074219	1042.451782226562	729.8472900390625	327.2991638183594	908.895751953125	1591.52099609375	114.5022811889648	1078.310424804688	1623.345092773438	-3.108561754226685	1068.169799804688	1620.814697265625	97.68962097167969	896.6395874023438	1587.642211914062	-29.31548500061035	957.4991455078125	913.72802734375	-113.0968017578125	950.1278076171875	917.2115478515625	226.8767700195312	1054.837524414062	944.738525390625	184.3658447265625	1075.917358398438	940.2110595703125	-56.52801895141602	968.84326171875	456.6791687011719	-98.00850677490234	978.3800048828125	595.9281616210938	-109.4536285400391	883.483642578125	41.0919075012207	-79.56662750244141	924.1345825195312	241.6327362060547	-102.4527206420898	1093.233764648438	32.81852722167969	-37.17652130126953	1027.43359375	20.34049224853516	10.34150123596191	1007.72802734375	33.67207717895508	-101.6841354370117	854.5274047851562	35.88889694213867	-10.01413154602051	949.2106323242188	452.9273986816406	199.9499359130859	1015.914001464844	708.3709106445312	221.8782196044922	883.3882446289062	43.25657653808594	169.6455383300781	949.9588623046875	335.6734924316406	190.4121551513672	1076.833984375	32.94295883178711	114.8612899780273	1018.906921386719	29.035400390625	74.70548248291016	983.7399291992188	28.46344757080078	186.9644470214844	832.7676391601562	45.26131057739258	121.9799499511719	871.7549438476562	973.9978637695312	118.6528701782227	1101.74462890625	727.1921997070312	-163.7866363525391	nan	nan	nan	nan	nan	nan	
430	4.29	870.2070922851562	974.8497924804688	-9.899786949157715	868.337646484375	1025.698608398438	57.45048141479492	1084.231567382812	1215.15966796875	46.21299743652344	848.9832153320312	1143.391845703125	42.63547897338867	879.019287109375	1392.794067382812	25.92534637451172	1037.014892578125	1338.86572265625	40.03971481323242	834.6700439453125	1253.47021484375	93.19365692138672	876.4356079101562	1354.904174804688	-76.3104248046875	965.3737182617188	1373.754028320312	-127.0665588378906	959.0662231445312	1251.526977539062	-193.3868713378906	990.7967529296875	1047.672729492188	-199.3612213134766	925.5759887695312	1032.677734375	-146.6500549316406	1086.383911132812	804.31591796875	-148.2909851074219	1050.775390625	795.036376953125	-206.5975646972656	1009.467163085938	944.584228515625	-203.6309814453125	1087.395263671875	642.8008422851562	-148.1105194091797	1045.832397460938	724.685302734375	-202.1961212158203	930.6965942382812	1381.685302734375	192.5371856689453	919.31494140625	1315.68505859375	255.3675994873047	937.5089721679688	1048.056884765625	292.9667053222656	909.88671875	1038.745971679688	204.9833984375	1067.39697265625	829.084228515625	265.4950561523438	1024.132080078125	811.8076782226562	325.6862487792969	964.6116943359375	982.5914306640625	305.2396850585938	1093.192749023438	657.4695434570312	283.1917419433594	1099.97412109375	730.2554931640625	285.1038818359375	1044.133056640625	729.7308349609375	325.8259582519531	909.4364624023438	1591.60302734375	114.7483062744141	1078.878295898438	1623.30712890625	-2.745625972747803	1068.724365234375	1620.7685546875	98.00852966308594	897.1852416992188	1587.746948242188	-29.07182693481445	958.9276123046875	913.640625	-112.6379470825195	950.2570190429688	917.2062377929688	227.0190277099609	1054.973388671875	944.61669921875	184.5815582275391	1076.115234375	940.1359252929688	-56.25075531005859	969.2062377929688	456.6353759765625	-97.77724456787109	977.2340698242188	596.2890014648438	-109.7325592041016	883.4913330078125	41.16756057739258	-79.48485565185547	924.3645629882812	241.6284484863281	-102.3154754638672	1093.27490234375	32.80200576782227	-37.15217208862305	1027.43701171875	20.31943893432617	10.34847354888916	1007.744812011719	33.72160339355469	-101.6421813964844	854.5538940429688	35.88143920898438	-9.936861038208008	949.0804443359375	452.9089965820312	200.0274505615234	1015.983825683594	708.2750854492188	222.0025024414062	883.3732299804688	43.17954254150391	169.7338562011719	949.832275390625	335.6838073730469	190.5029907226562	1076.792846679688	32.96683120727539	114.8741302490234	1018.864624023438	29.0849437713623	74.7254638671875	983.72705078125	28.4023494720459	187.0184783935547	832.7376708984375	45.2517204284668	122.0452651977539	871.7813720703125	974.0355224609375	118.6903228759766	1097.091796875	725.968505859375	-164.1740417480469	nan	nan	nan	nan	nan	nan	
431	4.3	870.3908081054688	974.86572265625	-9.817844390869141	868.502685546875	1025.737060546875	57.54639434814453	1084.743408203125	1215.16650390625	46.27266311645508	849.3818969726562	1143.450073242188	42.84454727172852	879.5451049804688	1392.839111328125	26.1631031036377	1037.520874023438	1338.853393554688	40.23295593261719	835.1668701171875	1253.51318359375	93.41425323486328	876.9681396484375	1355.047485351562	-76.05869293212891	965.8509521484375	1373.823120117188	-126.8676071166992	958.8826904296875	1251.715209960938	-193.2972106933594	988.9376831054688	1047.557861328125	-199.2014617919922	923.9868774414062	1033.146728515625	-146.0137634277344	1082.7421875	803.3726196289062	-148.6246032714844	1046.717895507812	794.4371337890625	-206.7138061523438	1006.691284179688	944.3278198242188	-203.5294494628906	1082.104858398438	641.8488159179688	-148.3510589599609	1041.090087890625	724.1407470703125	-202.2431640625	931.147216796875	1381.635986328125	192.7279510498047	919.77783203125	1315.465454101562	255.4562835693359	938.2323608398438	1047.793090820312	292.5552368164062	910.6550903320312	1038.766479492188	204.7308502197266	1068.661254882812	829.2650756835938	264.3031921386719	1025.459350585938	811.6016235351562	324.4690856933594	965.4298095703125	982.3197631835938	304.5807800292969	1095.034301757812	657.5980834960938	281.4426574707031	1101.59521484375	730.55615234375	283.5255737304688	1045.749145507812	729.5946044921875	324.3323974609375	910.0303344726562	1591.6875	115.0156936645508	1079.412231445312	1623.281982421875	-2.3829185962677	1069.27587890625	1620.732421875	98.32554626464844	897.7200317382812	1587.84326171875	-28.81602096557617	960.072021484375	913.5786743164062	-112.2519149780273	950.3652954101562	917.2131958007812	227.1581420898438	1055.11376953125	944.5082397460938	184.7994689941406	1076.2822265625	940.05615234375	-55.98773956298828	969.5234985351562	456.5962219238281	-97.56491088867188	976.087890625	596.684814453125	-110.0236206054688	883.4989013671875	41.23620223999023	-79.40943145751953	924.5697021484375	241.6383819580078	-102.1831283569336	1093.309936523438	32.79077911376953	-37.13362884521484	1027.438720703125	20.2978343963623	10.3544864654541	1007.759704589844	33.76602935791016	-101.6044006347656	854.5761108398438	35.87699890136719	-9.86577320098877	948.9637451171875	452.8875427246094	200.0982055664062	1016.05810546875	708.1920776367188	222.1296234130859	883.364013671875	43.11536026000977	169.8057250976562	949.7131958007812	335.7286071777344	190.6342315673828	1076.753173828125	32.98584365844727	114.8846054077148	1018.823791503906	29.12727546691895	74.74178314208984	983.7183837890625	28.3494701385498	187.0651397705078	832.7125854492188	45.24248886108398	122.1056442260742	871.75390625	974.079345703125	118.721321105957	1092.566284179688	724.8720703125	-164.5320281982422	nan	nan	nan	nan	nan	nan	
